# Blender v2.79 (sub 0) OBJ File: 'forkie.blend'
# www.blender.org
mtllib forkie.mtl
o Cube_Cube.001
v -0.410416 -1.377860 0.077078
v -0.410416 -0.557028 0.077078
v -0.410416 -1.377860 -0.077078
v -0.410416 -0.557028 -0.077078
v 0.410416 -1.377860 0.077078
v 0.410416 -0.557028 0.077078
v 0.410416 -1.377860 -0.077078
v 0.410416 -0.557028 -0.077078
v 0.230098 -1.377859 -0.077078
v -0.230098 -1.377859 -0.077078
v -0.230098 -0.557028 -0.077078
v 0.230098 -0.557028 -0.077078
v -0.230098 -1.377859 0.077078
v 0.230098 -1.377859 0.077078
v 0.230098 -0.557028 0.077078
v -0.230098 -0.557028 0.077078
v -0.410416 -1.213693 0.077078
v -0.410416 -1.213693 -0.077078
v -0.230098 -1.213693 0.077078
v -0.230098 -1.213693 -0.077078
v 0.410416 -1.213693 -0.077078
v 0.410416 -1.213693 0.077078
v 0.230098 -1.213693 0.077078
v 0.230098 -1.213693 -0.077078
v 0.383368 -1.238318 0.433042
v 0.383368 -1.353235 0.433042
v 0.257146 -1.353235 0.433042
v -0.383368 -1.353235 0.433042
v -0.257146 -1.353235 0.433042
v 0.257146 -1.238318 0.433042
v -0.257146 -1.238318 0.433042
v -0.383368 -1.238318 0.433042
vn -1.0000 0.0000 0.0000
vn 0.0000 0.0000 -1.0000
vn 1.0000 0.0000 0.0000
vn 0.0000 0.0000 1.0000
vn -0.0000 -1.0000 0.0000
vn 0.0000 1.0000 0.0000
vn -0.9971 0.0000 0.0758
vn 0.9971 0.0000 0.0758
vn 0.0000 -0.9976 0.0690
vn 0.0000 0.9976 0.0690
usemtl Material.002
s off
f 17//1 2//1 4//1 18//1
f 24//2 12//2 8//2 21//2
f 21//3 8//3 6//3 22//3
f 19//4 16//4 2//4 17//4
f 9//5 7//5 5//5 14//5
f 11//6 4//6 2//6 16//6
f 8//6 12//6 15//6 6//6
f 3//5 10//5 13//5 1//5
f 22//4 6//4 15//4 23//4
f 18//2 4//2 11//2 20//2
f 19//3 13//3 10//3 20//3
f 23//1 24//1 9//1 14//1
f 16//3 19//3 20//3 11//3
f 3//2 18//2 20//2 10//2
f 23//7 14//7 27//7 30//7
f 1//1 17//1 18//1 3//1
f 15//1 12//1 24//1 23//1
f 5//8 22//8 25//8 26//8
f 7//3 21//3 22//3 5//3
f 9//2 24//2 21//2 7//2
f 29//4 31//4 32//4 28//4
f 26//4 25//4 30//4 27//4
f 1//9 13//9 29//9 28//9
f 13//8 19//8 31//8 29//8
f 14//9 5//9 26//9 27//9
f 19//10 17//10 32//10 31//10
f 22//10 23//10 30//10 25//10
f 17//7 1//7 28//7 32//7
o Sphere
v 0.000000 0.866025 -0.500000
v 0.000000 -0.500000 -0.866025
v -0.000000 1.000000 -0.000000
v 0.353553 0.866025 -0.353553
v 0.612372 0.500000 -0.612373
v 0.707107 -0.000000 -0.707107
v 0.612372 -0.500000 -0.612372
v 0.353553 -0.866025 -0.353553
v 0.500000 0.866025 -0.000000
v 0.866025 0.500000 -0.000000
v 1.000000 -0.000000 -0.000000
v 0.866025 -0.500000 -0.000000
v 0.500000 -0.866025 -0.000000
v 0.353553 0.866025 0.353553
v 0.612372 0.500000 0.612372
v 0.707107 -0.000000 0.707106
v 0.612372 -0.500000 0.612372
v 0.353553 -0.866025 0.353553
v 0.000000 -1.000000 -0.000000
v -0.000000 0.866025 0.500000
v 0.000000 0.500000 0.866025
v 0.000000 -0.000000 1.000000
v 0.000000 -0.500000 0.866025
v -0.000000 -0.866025 0.500000
v -0.353553 0.866025 0.353553
v -0.612372 0.500000 0.612372
v -0.707107 -0.000000 0.707106
v -0.612372 -0.500000 0.612372
v -0.353553 -0.866025 0.353553
v -0.500000 0.866025 -0.000000
v -0.866025 0.500000 -0.000000
v -1.000000 -0.000000 -0.000000
v -0.866025 -0.500000 -0.000000
v -0.500000 -0.866025 -0.000000
v -0.353553 0.866025 -0.353553
v -0.612372 0.500000 -0.612372
v -0.707107 -0.000000 -0.707107
v -0.612372 -0.500000 -0.612372
v -0.353553 -0.866025 -0.353553
v -0.000000 0.500000 -0.866025
v 0.000000 -0.000000 -1.000000
v -0.000000 -0.866025 -0.500000
vn 0.0000 -0.4744 -0.8803
vn 0.0000 0.0000 -1.0000
vn 0.7071 0.0000 -0.7071
vn 0.6225 -0.4744 -0.6225
vn 0.0000 0.4744 -0.8803
vn 0.0000 0.8383 -0.5452
vn 0.3855 0.8383 -0.3855
vn 0.6225 0.4744 -0.6225
vn 0.0000 -0.8383 -0.5452
vn 0.3855 -0.8383 -0.3855
vn 0.0000 1.0000 0.0000
vn 0.0000 -1.0000 0.0000
vn 0.8803 -0.4744 0.0000
vn 0.5452 -0.8383 0.0000
vn 0.8803 0.4744 0.0000
vn 1.0000 0.0000 0.0000
vn 0.5452 0.8383 0.0000
vn 0.6225 -0.4744 0.6225
vn 0.3855 -0.8383 0.3855
vn 0.6225 0.4744 0.6225
vn 0.7071 0.0000 0.7071
vn 0.3855 0.8383 0.3855
vn 0.0000 -0.4744 0.8803
vn 0.0000 -0.8383 0.5452
vn 0.0000 0.4744 0.8803
vn 0.0000 0.0000 1.0000
vn 0.0000 0.8383 0.5452
vn -0.6225 0.4744 0.6225
vn -0.7071 0.0000 0.7071
vn -0.3855 0.8383 0.3855
vn -0.3855 -0.8383 0.3855
vn -0.6225 -0.4744 0.6225
vn -0.5452 0.8383 0.0000
vn -0.5452 -0.8383 0.0000
vn -1.0000 0.0000 0.0000
vn -0.8803 -0.4744 0.0000
vn -0.8803 0.4744 0.0000
vn -0.3855 -0.8383 -0.3855
vn -0.7071 0.0000 -0.7071
vn -0.6225 -0.4744 -0.6225
vn -0.3855 0.8383 -0.3855
vn -0.6225 0.4744 -0.6225
usemtl Material.001
s 1
f 34//11 73//12 38//13 39//14
f 72//15 33//16 36//17 37//18
f 74//19 34//11 39//14 40//20
f 73//12 72//15 37//18 38//13
f 33//16 35//21 36//17
f 51//22 74//19 40//20
f 40//20 39//14 44//23 45//24
f 38//13 37//18 42//25 43//26
f 36//17 35//21 41//27
f 51//22 40//20 45//24
f 39//14 38//13 43//26 44//23
f 37//18 36//17 41//27 42//25
f 45//24 44//23 49//28 50//29
f 43//26 42//25 47//30 48//31
f 41//27 35//21 46//32
f 51//22 45//24 50//29
f 44//23 43//26 48//31 49//28
f 42//25 41//27 46//32 47//30
f 50//29 49//28 55//33 56//34
f 48//31 47//30 53//35 54//36
f 46//32 35//21 52//37
f 51//22 50//29 56//34
f 49//28 48//31 54//36 55//33
f 47//30 46//32 52//37 53//35
f 54//36 53//35 58//38 59//39
f 52//37 35//21 57//40
f 51//22 56//34 61//41
f 55//33 54//36 59//39 60//42
f 53//35 52//37 57//40 58//38
f 56//34 55//33 60//42 61//41
f 57//40 35//21 62//43
f 51//22 61//41 66//44
f 60//42 59//39 64//45 65//46
f 58//38 57//40 62//43 63//47
f 61//41 60//42 65//46 66//44
f 59//39 58//38 63//47 64//45
f 51//22 66//44 71//48
f 65//46 64//45 69//49 70//50
f 63//47 62//43 67//51 68//52
f 66//44 65//46 70//50 71//48
f 64//45 63//47 68//52 69//49
f 62//43 35//21 67//51
f 51//22 71//48 74//19
f 70//50 69//49 73//12 34//11
f 68//52 67//51 33//16 72//15
f 71//48 70//50 34//11 74//19
f 69//49 68//52 72//15 73//12
f 67//51 35//21 33//16
